<svg xmlns="http://www.w3.org/2000/svg" width="1768" height="100" fill="none" viewBox="0 0 1768 400">
  <path fill="#457E9E" d="M.5 201 198 399.5 394 203l-94-94v40.5l51 53.5-153 151.5L42 201l51.5-51.5V109l-93 92Z"/>
  <path fill="#FF525A" d="M273.5 77 197.5.5 119 77v169l78.5-74.5 76 74.5V77Z"/>
  <path fill="#457E9E" d="M440.672 273V132.84h45.12c14.208 0 25.536 3.264 33.984 9.792 8.448 6.4 12.672 15.104 12.672 26.112 0 6.144-1.472 11.52-4.416 16.128-2.816 4.608-6.656 8.192-11.52 10.752-4.736 2.56-9.92 3.84-15.552 3.84v.576c6.272-.128 11.968 1.024 17.088 3.456 5.248 2.432 9.472 6.08 12.672 10.944 3.2 4.864 4.8 10.88 4.8 18.048 0 8.192-1.984 15.36-5.952 21.504-3.84 6.016-9.344 10.688-16.512 14.016-7.168 3.328-15.68 4.992-25.536 4.992h-46.848Zm27.84-23.232h17.856c6.272 0 11.2-1.664 14.784-4.992 3.584-3.328 5.376-7.936 5.376-13.824s-1.792-10.496-5.376-13.824c-3.584-3.456-8.512-5.184-14.784-5.184h-17.856v37.824Zm0-60.48h16.896c5.632 0 10.048-1.472 13.248-4.416 3.2-3.072 4.8-7.168 4.8-12.288 0-5.248-1.6-9.28-4.8-12.096-3.2-2.944-7.616-4.416-13.248-4.416h-16.896v33.216Zm141.813 85.632c-9.344 0-17.472-1.728-24.384-5.184-6.912-3.584-12.288-8.512-16.128-14.784-3.712-6.4-5.568-13.824-5.568-22.272v-24.96c0-8.448 1.856-15.808 5.568-22.08 3.84-6.4 9.216-11.328 16.128-14.784 6.912-3.584 15.04-5.376 24.384-5.376 9.472 0 17.6 1.792 24.384 5.376 6.912 3.456 12.224 8.384 15.936 14.784 3.84 6.272 5.76 13.632 5.76 22.08v24.96c0 8.448-1.92 15.872-5.76 22.272-3.712 6.272-9.024 11.2-15.936 14.784-6.784 3.456-14.912 5.184-24.384 5.184Zm0-24.96c5.632 0 9.92-1.472 12.864-4.416 2.944-3.072 4.416-7.36 4.416-12.864v-24.96c0-5.632-1.472-9.92-4.416-12.864-2.944-2.944-7.232-4.416-12.864-4.416-5.504 0-9.792 1.472-12.864 4.416-2.944 2.944-4.416 7.232-4.416 12.864v24.96c0 5.504 1.472 9.792 4.416 12.864 3.072 2.944 7.36 4.416 12.864 4.416Zm124.725 24.96c-9.344 0-17.472-1.728-24.384-5.184-6.912-3.584-12.288-8.512-16.128-14.784-3.712-6.4-5.568-13.824-5.568-22.272v-24.96c0-8.448 1.856-15.808 5.568-22.08 3.84-6.4 9.216-11.328 16.128-14.784 6.912-3.584 15.04-5.376 24.384-5.376 9.472 0 17.6 1.792 24.384 5.376 6.912 3.456 12.224 8.384 15.936 14.784 3.84 6.272 5.76 13.632 5.76 22.08v24.96c0 8.448-1.92 15.872-5.76 22.272-3.712 6.272-9.024 11.2-15.936 14.784-6.784 3.456-14.912 5.184-24.384 5.184Zm0-24.96c5.632 0 9.92-1.472 12.864-4.416 2.944-3.072 4.416-7.36 4.416-12.864v-24.96c0-5.632-1.472-9.92-4.416-12.864-2.944-2.944-7.232-4.416-12.864-4.416-5.504 0-9.792 1.472-12.864 4.416-2.944 2.944-4.416 7.232-4.416 12.864v24.96c0 5.504 1.472 9.792 4.416 12.864 3.072 2.944 7.36 4.416 12.864 4.416ZM815.423 273V132.84h28.8v74.496h14.208l22.08-39.936h32.064l-29.376 51.648L913.151 273h-32.64l-22.272-41.472h-14.016V273h-28.8Zm119.541 0V167.4h22.656v15.36h4.608l-3.648 2.688c0-6.016 1.728-10.816 5.184-14.4 3.456-3.712 7.744-5.568 12.864-5.568 5.504 0 9.792 2.368 12.864 7.104 3.072 4.736 4.608 11.008 4.608 18.816l-3.456-8.64h5.376l-1.728 2.688c0-6.016 1.664-10.816 4.992-14.4 3.326-3.712 7.806-5.568 13.436-5.568 6.4 0 11.59 2.432 15.56 7.296 3.96 4.736 5.95 11.264 5.95 19.584V273h-24.77v-78.72c0-2.944-.64-5.184-1.92-6.72-1.28-1.664-3.14-2.496-5.57-2.496s-4.286.832-5.566 2.496c-1.28 1.536-1.92 3.776-1.92 6.72V273h-19.776v-78.72c0-2.944-.64-5.184-1.92-6.72-1.28-1.664-3.136-2.496-5.568-2.496-2.432 0-4.288.832-5.568 2.496-1.28 1.536-1.92 3.776-1.92 6.72V273h-24.768Zm160.626 1.92c-10.62 0-19.07-2.88-25.34-8.64-6.14-5.76-9.22-13.568-9.22-23.424 0-10.624 3.65-18.752 10.95-24.384 7.42-5.76 18.05-8.64 31.87-8.64h21.89v-7.872c0-4.096-1.47-7.36-4.42-9.792-2.81-2.432-6.65-3.648-11.52-3.648-4.48 0-8.19 1.024-11.13 3.072-2.95 2.048-4.74 4.864-5.38 8.448h-27.84c1.15-10.624 5.76-19.008 13.82-25.152 8.2-6.272 18.69-9.408 31.49-9.408 13.44 0 24.07 3.328 31.87 9.984 7.94 6.528 11.91 15.36 11.91 26.496V273h-27.84v-17.28h-4.61l4.8-6.72c0 7.936-2.88 14.272-8.64 19.008-5.63 4.608-13.18 6.912-22.66 6.912Zm10.76-21.12c5.63 0 10.24-1.472 13.82-4.416 3.71-3.072 5.57-7.04 5.57-11.904v-11.328h-21.31c-4.36 0-7.88 1.28-10.56 3.84-2.69 2.432-4.04 5.696-4.04 9.792 0 4.352 1.48 7.808 4.42 10.368 2.94 2.432 6.98 3.648 12.1 3.648Zm85.74 19.2V167.4h26.88v20.16h7.3l-8.26 12.288c0-11.392 2.63-19.968 7.88-25.728 5.24-5.76 12.92-8.64 23.04-8.64 11.64 0 20.67 3.52 27.07 10.56 6.53 7.04 9.79 16.96 9.79 29.76v8.64h-30.72v-6.72c0-5.76-1.6-10.24-4.8-13.44-3.07-3.2-7.23-4.8-12.48-4.8-5.5 0-9.73 1.6-12.67 4.8-2.82 3.2-4.23 7.68-4.23 13.44V273h-28.8Zm122.23 0V132.84h28.8v74.496h14.21l22.08-39.936h32.07l-29.38 51.648L1412.05 273h-32.64l-22.27-41.472h-14.02V273h-28.8Zm169.27 1.92c-9.34 0-17.53-1.728-24.57-5.184-6.92-3.584-12.29-8.512-16.13-14.784-3.71-6.4-5.57-13.824-5.57-22.272v-24.96c0-8.448 1.86-15.808 5.57-22.08 3.84-6.4 9.21-11.328 16.13-14.784 7.04-3.584 15.23-5.376 24.57-5.376 9.35 0 17.41 1.792 24.19 5.376 6.92 3.456 12.23 8.384 15.94 14.784 3.84 6.272 5.76 13.632 5.76 22.08v19.2h-64.7v5.76c0 6.656 1.6 11.712 4.8 15.168 3.2 3.328 8 4.992 14.4 4.992 4.48 0 8.06-.768 10.75-2.304 2.81-1.536 4.67-3.648 5.57-6.336h28.22c-2.3 9.216-7.55 16.64-15.74 22.272-8.07 5.632-17.8 8.448-29.19 8.448Zm18.43-62.784v-4.8c0-6.528-1.53-11.52-4.6-14.976-2.95-3.456-7.56-5.184-13.83-5.184-6.27 0-11.01 1.792-14.21 5.376-3.07 3.584-4.6 8.64-4.6 15.168v2.88l39.16-.384-1.92 1.92ZM1566.27 273V167.4h26.88v20.16h7.3l-8.26 12.288c0-11.392 2.62-19.968 7.87-25.728 5.25-5.76 12.93-8.64 23.04-8.64 11.65 0 20.67 3.52 27.07 10.56 6.53 7.04 9.8 16.96 9.8 29.76v8.64h-30.72v-6.72c0-5.76-1.6-10.24-4.8-13.44-3.08-3.2-7.24-4.8-12.48-4.8-5.51 0-9.73 1.6-12.68 4.8-2.81 3.2-4.22 7.68-4.22 13.44V273h-28.8Z"/>
</svg>
